<mxfile host="app.diagrams.net" modified="2023-10-19T07:26:15.470Z" agent="Mozilla/5.0 (Windows NT 10.0; Win64; x64) AppleWebKit/537.36 (KHTML, like Gecko) Chrome/109.0.0.0 Safari/537.36" etag="Dl0dNupzFieDvw1dC1WA" version="22.0.4" type="device">
  <diagram name="第 1 页" id="oCqx4iH8aihrG6zilNWZ">
    <mxGraphModel dx="2074" dy="1164" grid="1" gridSize="10" guides="1" tooltips="1" connect="1" arrows="1" fold="1" page="1" pageScale="1" pageWidth="827" pageHeight="1169" math="0" shadow="0">
      <root>
        <mxCell id="0" />
        <mxCell id="1" parent="0" />
        <mxCell id="VEDtSxvEaQVLwRTqOIw5-5" value="" style="edgeStyle=orthogonalEdgeStyle;rounded=0;orthogonalLoop=1;jettySize=auto;html=1;" edge="1" parent="1" source="VEDtSxvEaQVLwRTqOIw5-1" target="VEDtSxvEaQVLwRTqOIw5-3">
          <mxGeometry relative="1" as="geometry" />
        </mxCell>
        <mxCell id="VEDtSxvEaQVLwRTqOIw5-1" value="開啟程式" style="rounded=1;whiteSpace=wrap;html=1;" vertex="1" parent="1">
          <mxGeometry x="75" y="100" width="120" height="60" as="geometry" />
        </mxCell>
        <mxCell id="VEDtSxvEaQVLwRTqOIw5-6" value="" style="edgeStyle=orthogonalEdgeStyle;rounded=0;orthogonalLoop=1;jettySize=auto;html=1;" edge="1" parent="1" source="VEDtSxvEaQVLwRTqOIw5-3" target="VEDtSxvEaQVLwRTqOIw5-4">
          <mxGeometry relative="1" as="geometry" />
        </mxCell>
        <mxCell id="VEDtSxvEaQVLwRTqOIw5-3" value="讀取設定檔" style="rounded=0;whiteSpace=wrap;html=1;" vertex="1" parent="1">
          <mxGeometry x="75" y="200" width="120" height="60" as="geometry" />
        </mxCell>
        <mxCell id="VEDtSxvEaQVLwRTqOIw5-8" value="" style="edgeStyle=orthogonalEdgeStyle;rounded=0;orthogonalLoop=1;jettySize=auto;html=1;" edge="1" parent="1" target="VEDtSxvEaQVLwRTqOIw5-7">
          <mxGeometry relative="1" as="geometry">
            <mxPoint x="135" y="470" as="sourcePoint" />
          </mxGeometry>
        </mxCell>
        <mxCell id="VEDtSxvEaQVLwRTqOIw5-16" style="edgeStyle=orthogonalEdgeStyle;rounded=0;orthogonalLoop=1;jettySize=auto;html=1;entryX=0.5;entryY=0;entryDx=0;entryDy=0;" edge="1" parent="1" source="VEDtSxvEaQVLwRTqOIw5-4" target="VEDtSxvEaQVLwRTqOIw5-7">
          <mxGeometry relative="1" as="geometry" />
        </mxCell>
        <mxCell id="VEDtSxvEaQVLwRTqOIw5-21" style="edgeStyle=orthogonalEdgeStyle;rounded=0;orthogonalLoop=1;jettySize=auto;html=1;entryX=0.5;entryY=0;entryDx=0;entryDy=0;" edge="1" parent="1" source="VEDtSxvEaQVLwRTqOIw5-4" target="VEDtSxvEaQVLwRTqOIw5-20">
          <mxGeometry relative="1" as="geometry" />
        </mxCell>
        <mxCell id="VEDtSxvEaQVLwRTqOIw5-4" value="檢查設定檔&lt;br&gt;是否有裝置名稱" style="rhombus;whiteSpace=wrap;html=1;" vertex="1" parent="1">
          <mxGeometry x="60" y="310" width="150" height="120" as="geometry" />
        </mxCell>
        <mxCell id="VEDtSxvEaQVLwRTqOIw5-10" value="" style="edgeStyle=orthogonalEdgeStyle;rounded=0;orthogonalLoop=1;jettySize=auto;html=1;" edge="1" parent="1" source="VEDtSxvEaQVLwRTqOIw5-7" target="VEDtSxvEaQVLwRTqOIw5-9">
          <mxGeometry relative="1" as="geometry" />
        </mxCell>
        <mxCell id="VEDtSxvEaQVLwRTqOIw5-7" value="跳出裝置設定畫面" style="rounded=0;whiteSpace=wrap;html=1;" vertex="1" parent="1">
          <mxGeometry x="75" y="470" width="120" height="60" as="geometry" />
        </mxCell>
        <mxCell id="VEDtSxvEaQVLwRTqOIw5-12" value="" style="edgeStyle=orthogonalEdgeStyle;rounded=0;orthogonalLoop=1;jettySize=auto;html=1;" edge="1" parent="1" source="VEDtSxvEaQVLwRTqOIw5-9" target="VEDtSxvEaQVLwRTqOIw5-11">
          <mxGeometry relative="1" as="geometry" />
        </mxCell>
        <mxCell id="VEDtSxvEaQVLwRTqOIw5-9" value="選擇兩台裝置名稱" style="rounded=0;whiteSpace=wrap;html=1;" vertex="1" parent="1">
          <mxGeometry x="75" y="560" width="120" height="60" as="geometry" />
        </mxCell>
        <mxCell id="VEDtSxvEaQVLwRTqOIw5-19" style="edgeStyle=orthogonalEdgeStyle;rounded=0;orthogonalLoop=1;jettySize=auto;html=1;entryX=0;entryY=0.5;entryDx=0;entryDy=0;" edge="1" parent="1" source="VEDtSxvEaQVLwRTqOIw5-11" target="VEDtSxvEaQVLwRTqOIw5-18">
          <mxGeometry relative="1" as="geometry" />
        </mxCell>
        <mxCell id="VEDtSxvEaQVLwRTqOIw5-11" value="確認裝置名稱&lt;br&gt;按下&quot;確認&quot;" style="rounded=0;whiteSpace=wrap;html=1;" vertex="1" parent="1">
          <mxGeometry x="75" y="650" width="120" height="60" as="geometry" />
        </mxCell>
        <mxCell id="VEDtSxvEaQVLwRTqOIw5-15" value="NO" style="text;html=1;strokeColor=none;fillColor=none;align=center;verticalAlign=middle;whiteSpace=wrap;rounded=0;" vertex="1" parent="1">
          <mxGeometry x="85" y="430" width="51" height="30" as="geometry" />
        </mxCell>
        <mxCell id="VEDtSxvEaQVLwRTqOIw5-18" value="主畫面" style="rounded=1;whiteSpace=wrap;html=1;" vertex="1" parent="1">
          <mxGeometry x="400" y="650" width="120" height="60" as="geometry" />
        </mxCell>
        <mxCell id="VEDtSxvEaQVLwRTqOIw5-25" style="edgeStyle=orthogonalEdgeStyle;rounded=0;orthogonalLoop=1;jettySize=auto;html=1;entryX=0.5;entryY=0;entryDx=0;entryDy=0;" edge="1" parent="1" source="VEDtSxvEaQVLwRTqOIw5-20" target="VEDtSxvEaQVLwRTqOIw5-24">
          <mxGeometry relative="1" as="geometry" />
        </mxCell>
        <mxCell id="VEDtSxvEaQVLwRTqOIw5-20" value="將設定檔名稱填入&lt;br&gt;設定畫面" style="rounded=0;whiteSpace=wrap;html=1;" vertex="1" parent="1">
          <mxGeometry x="255" y="430" width="120" height="60" as="geometry" />
        </mxCell>
        <mxCell id="VEDtSxvEaQVLwRTqOIw5-22" value="YES" style="text;html=1;strokeColor=none;fillColor=none;align=center;verticalAlign=middle;whiteSpace=wrap;rounded=0;" vertex="1" parent="1">
          <mxGeometry x="235" y="340" width="51" height="30" as="geometry" />
        </mxCell>
        <mxCell id="VEDtSxvEaQVLwRTqOIw5-26" style="edgeStyle=orthogonalEdgeStyle;rounded=0;orthogonalLoop=1;jettySize=auto;html=1;" edge="1" parent="1" source="VEDtSxvEaQVLwRTqOIw5-24" target="VEDtSxvEaQVLwRTqOIw5-18">
          <mxGeometry relative="1" as="geometry" />
        </mxCell>
        <mxCell id="VEDtSxvEaQVLwRTqOIw5-24" value="確認裝置名稱&lt;br&gt;按下&quot;確認&quot;" style="rounded=0;whiteSpace=wrap;html=1;" vertex="1" parent="1">
          <mxGeometry x="255" y="540" width="120" height="60" as="geometry" />
        </mxCell>
        <mxCell id="VEDtSxvEaQVLwRTqOIw5-27" style="edgeStyle=orthogonalEdgeStyle;rounded=0;orthogonalLoop=1;jettySize=auto;html=1;entryX=0.917;entryY=0.033;entryDx=0;entryDy=0;entryPerimeter=0;" edge="1" parent="1" source="VEDtSxvEaQVLwRTqOIw5-4" target="VEDtSxvEaQVLwRTqOIw5-18">
          <mxGeometry relative="1" as="geometry" />
        </mxCell>
        <mxCell id="VEDtSxvEaQVLwRTqOIw5-28" value="1" style="text;strokeColor=none;fillColor=none;html=1;fontSize=24;fontStyle=1;verticalAlign=middle;align=center;" vertex="1" parent="1">
          <mxGeometry x="286" y="380" width="100" height="40" as="geometry" />
        </mxCell>
        <mxCell id="VEDtSxvEaQVLwRTqOIw5-29" value="2" style="text;strokeColor=none;fillColor=none;html=1;fontSize=24;fontStyle=1;verticalAlign=middle;align=center;" vertex="1" parent="1">
          <mxGeometry x="445" y="380" width="100" height="40" as="geometry" />
        </mxCell>
        <mxCell id="VEDtSxvEaQVLwRTqOIw5-31" value="&lt;h1&gt;路線1&lt;/h1&gt;&lt;p&gt;程式初次設定結束後&lt;br&gt;每次開啟，仍需要確認名稱，也可以換裝置名稱。&lt;/p&gt;" style="text;html=1;strokeColor=default;fillColor=none;spacing=5;spacingTop=-20;whiteSpace=wrap;overflow=hidden;rounded=0;" vertex="1" parent="1">
          <mxGeometry x="540" y="110" width="190" height="120" as="geometry" />
        </mxCell>
        <mxCell id="VEDtSxvEaQVLwRTqOIw5-32" value="&lt;h1&gt;路線2&lt;/h1&gt;程式初次設定結束後&lt;br style=&quot;border-color: var(--border-color);&quot;&gt;每次開啟，&lt;span style=&quot;background-color: initial;&quot;&gt;不需確認名稱。&lt;/span&gt;&lt;span style=&quot;background-color: initial;&quot;&gt;但如果中途換裝置，工程需copy乾淨的設定檔重新初始設定。&lt;/span&gt;&lt;span style=&quot;background-color: initial;&quot;&gt;&lt;br&gt;&lt;/span&gt;" style="text;html=1;strokeColor=default;fillColor=none;spacing=5;spacingTop=-20;whiteSpace=wrap;overflow=hidden;rounded=0;" vertex="1" parent="1">
          <mxGeometry x="540" y="240" width="190" height="120" as="geometry" />
        </mxCell>
        <mxCell id="VEDtSxvEaQVLwRTqOIw5-33" value="&lt;font style=&quot;font-size: 26px;&quot;&gt;&lt;b&gt;電源供應器 序號辨識&lt;/b&gt;&lt;/font&gt;" style="text;html=1;strokeColor=none;fillColor=none;align=center;verticalAlign=middle;whiteSpace=wrap;rounded=0;" vertex="1" parent="1">
          <mxGeometry x="80" y="50" width="390" height="30" as="geometry" />
        </mxCell>
        <mxCell id="VEDtSxvEaQVLwRTqOIw5-35" value="" style="endArrow=none;dashed=1;html=1;dashPattern=1 3;strokeWidth=2;rounded=0;entryX=0;entryY=0.5;entryDx=0;entryDy=0;" edge="1" parent="1" target="VEDtSxvEaQVLwRTqOIw5-31">
          <mxGeometry width="50" height="50" relative="1" as="geometry">
            <mxPoint x="320" y="360" as="sourcePoint" />
            <mxPoint x="370" y="310" as="targetPoint" />
          </mxGeometry>
        </mxCell>
        <mxCell id="VEDtSxvEaQVLwRTqOIw5-36" value="" style="endArrow=none;dashed=1;html=1;dashPattern=1 3;strokeWidth=2;rounded=0;entryX=0;entryY=0.5;entryDx=0;entryDy=0;" edge="1" parent="1" target="VEDtSxvEaQVLwRTqOIw5-32">
          <mxGeometry width="50" height="50" relative="1" as="geometry">
            <mxPoint x="500" y="370" as="sourcePoint" />
            <mxPoint x="550" y="180" as="targetPoint" />
          </mxGeometry>
        </mxCell>
      </root>
    </mxGraphModel>
  </diagram>
</mxfile>
